<svg id="Arboard_1" xmlns="http://www.w3.org/2000/svg" viewBox="0 0 426.25 426.25"><defs><style>.cls-1{opacity:0.9;}.cls-2{fill:#fff;stroke:#fff;stroke-miterlimit:10;stroke-width:2px;}</style></defs><title>Waiting_01</title><g id="Layer_24" data-name="Layer 24"><g class="cls-1"><path class="cls-2" d="M1894.6,698.68c-117.15,0-212.12,95-212.12,212.12s95,212.13,212.12,212.13,212.12-95,212.12-212.13S2011.75,698.68,1894.6,698.68Zm0,387.54A175.42,175.42,0,1,1,2070,910.8,175.42,175.42,0,0,1,1894.6,1086.22Z" transform="translate(-1681.48 -697.68)"/></g><path class="cls-2" d="M1973,1040.4H1819a14.58,14.58,0,0,1-14.58-14.58h0a14.58,14.58,0,0,1,14.58-14.58H1973a14.58,14.58,0,0,1,14.58,14.58h0A14.58,14.58,0,0,1,1973,1040.4Z" transform="translate(-1681.48 -697.68)"/><path class="cls-2" d="M1973,821.9H1819a14.58,14.58,0,0,1-14.58-14.58h0A14.58,14.58,0,0,1,1819,792.74H1973a14.58,14.58,0,0,1,14.58,14.58h0A14.58,14.58,0,0,1,1973,821.9Z" transform="translate(-1681.48 -697.68)"/><path class="cls-2" d="M1818.9,829.05s8.79,58.34,46.83,87.52h24.06c-45.8-34-55.37-87.52-55.37-87.52Z" transform="translate(-1681.48 -697.68)"/><path class="cls-2" d="M1818.9,1004.09s8.79-58.35,46.83-87.52h24.06c-45.8,34-55.37,87.52-55.37,87.52Z" transform="translate(-1681.48 -697.68)"/><path class="cls-2" d="M1973.1,829.05s-8.8,58.34-46.83,87.52h-24.06c45.79-34,55.37-87.52,55.37-87.52Z" transform="translate(-1681.48 -697.68)"/><path class="cls-2" d="M1973.1,1004.09s-8.8-58.35-46.83-87.52h-24.06c45.79,34,55.37,87.52,55.37,87.52Z" transform="translate(-1681.48 -697.68)"/><path class="cls-2" d="M1896,915.19c-19.44-14.9-32.11-33.34-40.22-49.3h80.44C1928.1,881.85,1915.43,900.29,1896,915.19Z" transform="translate(-1681.48 -697.68)"/><path class="cls-2" d="M1895.74,968c-39.77,0-46,36.06-46,36.06h92.48S1935.52,968,1895.74,968Z" transform="translate(-1681.48 -697.68)"/><polygon class="cls-2" points="219.24 281.85 209.81 281.85 212.57 213.07 216.48 213.07 219.24 281.85"/></g></svg>